<svg width="25" height="24" viewBox="0 0 25 24" fill="none" xmlns="http://www.w3.org/2000/svg">
<g clip-path="url(#clip0_294_500)">
<path fill-rule="evenodd" clip-rule="evenodd" d="M5.60436 8.35181C5.7358 8.74462 5.52392 9.1696 5.13112 9.30104C3.30569 9.91186 2 11.3062 2 13.5C2 16.1131 4.12575 18 6.875 18H15.5173C15.9316 18 16.2673 18.3357 16.2673 18.75C16.2673 19.1642 15.9316 19.5 15.5173 19.5H6.875C3.43675 19.5 0.5 17.0744 0.5 13.5C0.5 10.5468 2.334 8.65525 4.65513 7.87856C5.04794 7.74713 5.47293 7.95901 5.60436 8.35181Z" fill="#21272A"/>
<path fill-rule="evenodd" clip-rule="evenodd" d="M8.94721 3.95605C9.943 3.3626 11.1361 3 12.4999 3C16.1721 3 19.2522 5.62916 19.9175 9.81447C20.8728 9.9572 21.8798 10.3187 22.7114 10.9546C23.7525 11.7507 24.4999 12.9682 24.4999 14.625C24.4999 16.2133 23.913 17.4506 22.9076 18.284C22.5887 18.5483 22.1159 18.5041 21.8516 18.1852C21.5872 17.8663 21.6314 17.3935 21.9503 17.1291C22.5781 16.6088 22.9999 15.8126 22.9999 14.625C22.9999 13.4777 22.5052 12.6852 21.8002 12.1461C21.071 11.5885 20.1003 11.2953 19.2109 11.249C18.8408 11.2297 18.5402 10.9429 18.5036 10.5741C18.1208 6.71881 15.4957 4.5 12.4999 4.5C11.4112 4.5 10.4828 4.78709 9.71513 5.24458C9.35931 5.45663 8.89896 5.34009 8.6869 4.98427C8.47485 4.62845 8.5914 4.1681 8.94721 3.95605Z" fill="#21272A"/>
<path fill-rule="evenodd" clip-rule="evenodd" d="M2.96967 2.46967C3.26256 2.17678 3.73744 2.17678 4.03033 2.46967L22.0303 20.4697C22.3232 20.7626 22.3232 21.2374 22.0303 21.5303C21.7374 21.8232 21.2626 21.8232 20.9697 21.5303L2.96967 3.53033C2.67678 3.23744 2.67678 2.76256 2.96967 2.46967Z" fill="#21272A"/>
</g>
<defs>
<clipPath id="clip0_294_500">
<rect width="24" height="24" fill="white" transform="translate(0.5)"/>
</clipPath>
</defs>
</svg>
