<svg width="25" height="24" viewBox="0 0 25 24" fill="none" xmlns="http://www.w3.org/2000/svg">
<path fill-rule="evenodd" clip-rule="evenodd" d="M5.93798 5.25557C8.18599 3.2631 11.0931 2.25 13.8788 2.25C16.2652 2.25 18.6027 2.99537 20.3649 4.54637L20.3655 4.54686L20.366 4.54735C22.8786 6.76753 22.8789 10.444 20.3668 12.6645C20.3665 12.6647 20.3663 12.6649 20.366 12.6652L18.9472 13.9248C18.9471 13.9249 18.9471 13.9249 18.947 13.9249C18.7497 14.1003 18.6964 14.269 18.6964 14.3906C18.6964 14.5123 18.7497 14.681 18.9472 14.8564L18.9483 14.8574L18.9495 14.8585C19.0766 14.9723 19.141 15.0123 19.2012 15.0392C19.2714 15.0707 19.3829 15.105 19.6308 15.146L19.632 15.1462L19.6332 15.1464C19.6543 15.1499 19.6769 15.1536 19.701 15.1576C20.0493 15.2143 20.6979 15.3201 21.1707 15.757L21.1721 15.7583L21.1734 15.7596C21.6207 16.1771 21.8521 16.7881 21.871 17.3735C21.8902 17.9687 21.6912 18.6308 21.1542 19.1052C19.1748 20.8647 16.428 21.75 13.6819 21.75H13.5995L13.5968 21.75C10.8482 21.7301 8.03982 20.8234 5.93837 18.9651C1.68669 15.2073 1.68656 9.01349 5.93798 5.25557ZM13.8788 3.75C11.4428 3.75 8.89387 4.63989 6.93256 6.37843L6.93215 6.37879L6.93174 6.37915C3.35543 9.54001 3.35543 14.6803 6.93174 17.8412L6.9319 17.8413C8.7204 19.4229 11.1608 20.2318 13.6049 20.25H13.6819C16.1292 20.25 18.5006 19.4575 20.1586 17.9833L20.1597 17.9823L20.1608 17.9813C20.298 17.8603 20.3797 17.6652 20.3718 17.4218C20.3636 17.1692 20.2608 16.9606 20.1512 16.8573C20.0378 16.7536 19.835 16.7016 19.3852 16.6257C19.0944 16.5777 18.8336 16.5182 18.5877 16.408C18.3319 16.2934 18.1365 16.1439 17.9498 15.9768C17.4778 15.557 17.1964 14.9973 17.1964 14.3906C17.1964 13.7834 17.4783 13.2232 17.9511 12.8033L19.3722 11.5417L19.3728 11.5411C21.2098 9.91792 21.21 7.29529 19.3734 5.6719C17.9295 4.40134 15.964 3.75 13.8788 3.75Z" fill="#21272A"/>
<path d="M7.25 11.25C8.07843 11.25 8.75 10.5784 8.75 9.75C8.75 8.92157 8.07843 8.25 7.25 8.25C6.42157 8.25 5.75 8.92157 5.75 9.75C5.75 10.5784 6.42157 11.25 7.25 11.25Z" fill="#21272A"/>
<path d="M7.625 16.0781C8.45343 16.0781 9.125 15.4066 9.125 14.5781C9.125 13.7497 8.45343 13.0781 7.625 13.0781C6.79657 13.0781 6.125 13.7497 6.125 14.5781C6.125 15.4066 6.79657 16.0781 7.625 16.0781Z" fill="#21272A"/>
<path d="M11 8.25C11.8284 8.25 12.5 7.57843 12.5 6.75C12.5 5.92157 11.8284 5.25 11 5.25C10.1716 5.25 9.5 5.92157 9.5 6.75C9.5 7.57843 10.1716 8.25 11 8.25Z" fill="#21272A"/>
<path d="M12.5 19.4531C13.7426 19.4531 14.75 18.4458 14.75 17.2031C14.75 15.9605 13.7426 14.9531 12.5 14.9531C11.2574 14.9531 10.25 15.9605 10.25 17.2031C10.25 18.4458 11.2574 19.4531 12.5 19.4531Z" fill="#21272A"/>
<path d="M15.875 8.25C16.7034 8.25 17.375 7.57843 17.375 6.75C17.375 5.92157 16.7034 5.25 15.875 5.25C15.0466 5.25 14.375 5.92157 14.375 6.75C14.375 7.57843 15.0466 8.25 15.875 8.25Z" fill="#21272A"/>
</svg>
