<svg width="40" height="39" viewBox="0 0 40 39" fill="none" xmlns="http://www.w3.org/2000/svg">
<path fill-rule="evenodd" clip-rule="evenodd" d="M13.9062 30.4688C14.5793 30.4688 15.125 31.0144 15.125 31.6875V36.5625C15.125 37.2356 14.5793 37.7812 13.9062 37.7812C13.2332 37.7812 12.6875 37.2356 12.6875 36.5625V31.6875C12.6875 31.0144 13.2332 30.4688 13.9062 30.4688Z" fill="#21272A"/>
<path fill-rule="evenodd" clip-rule="evenodd" d="M6.59375 3.65625C6.27052 3.65625 5.96052 3.78465 5.73196 4.01321C5.5034 4.24177 5.375 4.55177 5.375 4.875V35.3438H22.4375V4.875C22.4375 4.55177 22.3091 4.24177 22.0805 4.01321C21.852 3.78465 21.542 3.65625 21.2188 3.65625H6.59375ZM6.59375 1.21875H21.2188C22.1884 1.21875 23.1184 1.60396 23.8041 2.28964C24.4898 2.97532 24.875 3.9053 24.875 4.875V36.2578C24.875 36.6618 24.7145 37.0493 24.4288 37.335C24.1431 37.6207 23.7556 37.7812 23.3516 37.7812H4.15625C3.48315 37.7812 2.9375 37.2356 2.9375 36.5625V4.875C2.9375 3.9053 3.32271 2.97532 4.00839 2.28964C4.69407 1.60396 5.62405 1.21875 6.59375 1.21875Z" fill="#21272A"/>
<path fill-rule="evenodd" clip-rule="evenodd" d="M23.1514 14.1202C23.6085 13.6631 24.2285 13.4062 24.875 13.4062H33.4062C34.3759 13.4062 35.3059 13.7915 35.9916 14.4771C36.6773 15.1628 37.0625 16.0928 37.0625 17.0625V36.5625C37.0625 37.2356 36.5168 37.7812 35.8438 37.7812H23.6562C22.9832 37.7812 22.4375 37.2356 22.4375 36.5625V15.8438C22.4375 15.1973 22.6943 14.5773 23.1514 14.1202ZM33.4062 15.8438L24.875 15.8438L24.875 35.3438H34.625V17.0625C34.625 16.7393 34.4966 16.4293 34.268 16.2007C34.0395 15.9722 33.7295 15.8438 33.4062 15.8438Z" fill="#21272A"/>
<path d="M7.97104 32.8964C7.71863 32.9295 7.46221 32.8826 7.23779 32.7625C7.01336 32.6423 6.83219 32.4549 6.7197 32.2266C6.6072 31.9982 6.56904 31.7404 6.61056 31.4892C6.65208 31.2381 6.7712 31.0062 6.9512 30.8262C7.13121 30.6462 7.36305 30.5271 7.6142 30.4856C7.86536 30.444 8.12321 30.4822 8.35156 30.5947C8.57992 30.7072 8.76732 30.8884 8.88746 31.1128C9.00761 31.3372 9.05446 31.5936 9.02145 31.846C8.98661 32.1124 8.86474 32.3598 8.67478 32.5498C8.48482 32.7397 8.23741 32.8616 7.97104 32.8964Z" fill="#21272A"/>
<path d="M7.97104 26.8027C7.71863 26.8357 7.46221 26.7889 7.23779 26.6687C7.01336 26.5486 6.83219 26.3612 6.7197 26.1328C6.6072 25.9045 6.56904 25.6466 6.61056 25.3955C6.65208 25.1443 6.7712 24.9125 6.9512 24.7325C7.13121 24.5525 7.36305 24.4333 7.6142 24.3918C7.86536 24.3503 8.12321 24.3885 8.35156 24.5009C8.57992 24.6134 8.76732 24.7946 8.88746 25.019C9.00761 25.2435 9.05446 25.4999 9.02145 25.7523C8.98661 26.0187 8.86474 26.2661 8.67478 26.456C8.48482 26.646 8.23741 26.7679 7.97104 26.8027Z" fill="#21272A"/>
<path d="M7.97104 20.7089C7.71863 20.742 7.46221 20.6951 7.23779 20.575C7.01336 20.4548 6.83219 20.2674 6.7197 20.0391C6.6072 19.8107 6.56904 19.5529 6.61056 19.3017C6.65208 19.0506 6.7712 18.8187 6.9512 18.6387C7.13121 18.4587 7.36305 18.3396 7.6142 18.2981C7.86536 18.2565 8.12321 18.2947 8.35156 18.4072C8.57992 18.5197 8.76732 18.7009 8.88746 18.9253C9.00761 19.1497 9.05446 19.4061 9.02145 19.6585C8.98661 19.9249 8.86474 20.1723 8.67478 20.3623C8.48482 20.5522 8.23741 20.6741 7.97104 20.7089Z" fill="#21272A"/>
<path d="M7.97104 14.6152C7.71863 14.6482 7.46221 14.6014 7.23779 14.4812C7.01336 14.3611 6.83219 14.1737 6.7197 13.9453C6.6072 13.717 6.56904 13.4591 6.61056 13.208C6.65208 12.9568 6.7712 12.725 6.9512 12.545C7.13121 12.365 7.36305 12.2458 7.6142 12.2043C7.86536 12.1628 8.12321 12.201 8.35156 12.3134C8.57992 12.4259 8.76732 12.6071 8.88746 12.8315C9.00761 13.056 9.05446 13.3124 9.02145 13.5648C8.98661 13.8312 8.86474 14.0786 8.67478 14.2685C8.48482 14.4585 8.23741 14.5804 7.97104 14.6152Z" fill="#21272A"/>
<path d="M7.97104 8.52145C7.71863 8.55446 7.46221 8.50761 7.23779 8.38746C7.01336 8.26732 6.83219 8.07992 6.7197 7.85156C6.6072 7.62321 6.56904 7.36536 6.61056 7.1142C6.65208 6.86305 6.7712 6.63121 6.9512 6.4512C7.13121 6.2712 7.36305 6.15208 7.6142 6.11056C7.86536 6.06904 8.12321 6.1072 8.35156 6.2197C8.57992 6.33219 8.76732 6.51336 8.88746 6.73779C9.00761 6.96221 9.05446 7.21863 9.02145 7.47104C8.98661 7.73741 8.86474 7.98482 8.67478 8.17478C8.48482 8.36474 8.23741 8.48661 7.97104 8.52145Z" fill="#21272A"/>
<path d="M14.0648 26.8027C13.8124 26.8357 13.556 26.7889 13.3315 26.6687C13.1071 26.5486 12.9259 26.3612 12.8134 26.1328C12.701 25.9045 12.6628 25.6466 12.7043 25.3955C12.7458 25.1443 12.865 24.9125 13.045 24.7325C13.225 24.5525 13.4568 24.4333 13.708 24.3918C13.9591 24.3503 14.217 24.3885 14.4453 24.5009C14.6737 24.6134 14.8611 24.7946 14.9812 25.019C15.1014 25.2435 15.1482 25.4999 15.1152 25.7523C15.0804 26.0187 14.9585 26.2661 14.7685 26.456C14.5786 26.646 14.3312 26.7679 14.0648 26.8027Z" fill="#21272A"/>
<path d="M14.0648 20.7089C13.8124 20.742 13.556 20.6951 13.3315 20.575C13.1071 20.4548 12.9259 20.2674 12.8134 20.0391C12.701 19.8107 12.6628 19.5529 12.7043 19.3017C12.7458 19.0506 12.865 18.8187 13.045 18.6387C13.225 18.4587 13.4568 18.3396 13.708 18.2981C13.9591 18.2565 14.217 18.2947 14.4453 18.4072C14.6737 18.5197 14.8611 18.7009 14.9812 18.9253C15.1014 19.1497 15.1482 19.4061 15.1152 19.6585C15.0804 19.9249 14.9585 20.1723 14.7685 20.3623C14.5786 20.5522 14.3312 20.6741 14.0648 20.7089Z" fill="#21272A"/>
<path d="M14.0648 14.6152C13.8124 14.6482 13.556 14.6014 13.3315 14.4812C13.1071 14.3611 12.9259 14.1737 12.8134 13.9453C12.701 13.717 12.6628 13.4591 12.7043 13.208C12.7458 12.9568 12.865 12.725 13.045 12.545C13.225 12.365 13.4568 12.2458 13.708 12.2043C13.9591 12.1628 14.217 12.201 14.4453 12.3134C14.6737 12.4259 14.8611 12.6071 14.9812 12.8315C15.1014 13.056 15.1482 13.3124 15.1152 13.5648C15.0804 13.8312 14.9585 14.0786 14.7685 14.2685C14.5786 14.4585 14.3312 14.5804 14.0648 14.6152Z" fill="#21272A"/>
<path d="M14.0648 8.52145C13.8124 8.55446 13.556 8.50761 13.3315 8.38746C13.1071 8.26732 12.9259 8.07992 12.8134 7.85156C12.701 7.62321 12.6628 7.36536 12.7043 7.1142C12.7458 6.86305 12.865 6.63121 13.045 6.4512C13.225 6.2712 13.4568 6.15208 13.708 6.11056C13.9591 6.06904 14.217 6.1072 14.4453 6.2197C14.6737 6.33219 14.8611 6.51336 14.9812 6.73779C15.1014 6.96221 15.1482 7.21863 15.1152 7.47104C15.0804 7.73741 14.9585 7.98482 14.7685 8.17478C14.5786 8.36474 14.3312 8.48661 14.0648 8.52145Z" fill="#21272A"/>
<path d="M20.1585 32.8964C19.9061 32.9295 19.6497 32.8826 19.4253 32.7625C19.2009 32.6423 19.0197 32.4549 18.9072 32.2266C18.7947 31.9982 18.7565 31.7404 18.7981 31.4892C18.8396 31.2381 18.9587 31.0062 19.1387 30.8262C19.3187 30.6462 19.5506 30.5271 19.8017 30.4856C20.0529 30.444 20.3107 30.4822 20.5391 30.5947C20.7674 30.7072 20.9548 30.8884 21.075 31.1128C21.1951 31.3372 21.242 31.5936 21.2089 31.846C21.1741 32.1124 21.0522 32.3598 20.8623 32.5498C20.6723 32.7397 20.4249 32.8616 20.1585 32.8964Z" fill="#21272A"/>
<path d="M20.1585 26.8027C19.9061 26.8357 19.6497 26.7889 19.4253 26.6687C19.2009 26.5486 19.0197 26.3612 18.9072 26.1328C18.7947 25.9045 18.7565 25.6466 18.7981 25.3955C18.8396 25.1443 18.9587 24.9125 19.1387 24.7325C19.3187 24.5525 19.5506 24.4333 19.8017 24.3918C20.0529 24.3503 20.3107 24.3885 20.5391 24.5009C20.7674 24.6134 20.9548 24.7946 21.075 25.019C21.1951 25.2435 21.242 25.4999 21.2089 25.7523C21.1741 26.0187 21.0522 26.2661 20.8623 26.456C20.6723 26.646 20.4249 26.7679 20.1585 26.8027Z" fill="#21272A"/>
<path d="M20.1585 20.7089C19.9061 20.742 19.6497 20.6951 19.4253 20.575C19.2009 20.4548 19.0197 20.2674 18.9072 20.0391C18.7947 19.8107 18.7565 19.5529 18.7981 19.3017C18.8396 19.0506 18.9587 18.8187 19.1387 18.6387C19.3187 18.4587 19.5506 18.3396 19.8017 18.2981C20.0529 18.2565 20.3107 18.2947 20.5391 18.4072C20.7674 18.5197 20.9548 18.7009 21.075 18.9253C21.1951 19.1497 21.242 19.4061 21.2089 19.6585C21.1741 19.9249 21.0522 20.1723 20.8623 20.3623C20.6723 20.5522 20.4249 20.6741 20.1585 20.7089Z" fill="#21272A"/>
<path d="M20.8632 14.2691C21.3377 13.7946 21.3358 13.0234 20.8589 12.5466C20.3821 12.0697 19.6109 12.0678 19.1364 12.5423C18.662 13.0167 18.6639 13.7879 19.1407 14.2648C19.6176 14.7416 20.3888 14.7435 20.8632 14.2691Z" fill="#21272A"/>
<path d="M20.1585 8.52145C19.9061 8.55446 19.6497 8.50761 19.4253 8.38746C19.2009 8.26732 19.0197 8.07992 18.9072 7.85156C18.7947 7.62321 18.7565 7.36536 18.7981 7.1142C18.8396 6.86305 18.9587 6.63121 19.1387 6.4512C19.3187 6.2712 19.5506 6.15208 19.8017 6.11056C20.0529 6.06904 20.3107 6.1072 20.5391 6.2197C20.7674 6.33219 20.9548 6.51336 21.075 6.73779C21.1951 6.96221 21.242 7.21863 21.2089 7.47104C21.1741 7.73741 21.0522 7.98482 20.8623 8.17478C20.6723 8.36474 20.4249 8.48661 20.1585 8.52145Z" fill="#21272A"/>
<path d="M30.9688 30.4688C30.7277 30.4688 30.4921 30.5402 30.2916 30.6741C30.0912 30.8081 29.935 30.9984 29.8428 31.2211C29.7505 31.4438 29.7264 31.6889 29.7734 31.9253C29.8204 32.1617 29.9365 32.3788 30.107 32.5493C30.2774 32.7197 30.4946 32.8358 30.731 32.8828C30.9674 32.9299 31.2124 32.9057 31.4351 32.8135C31.6578 32.7212 31.8482 32.565 31.9821 32.3646C32.116 32.1642 32.1875 31.9285 32.1875 31.6875C32.1875 31.3643 32.0591 31.0543 31.8305 30.8257C31.602 30.5972 31.292 30.4688 30.9688 30.4688Z" fill="#21272A"/>
<path d="M30.9688 24.375C30.7277 24.375 30.4921 24.4465 30.2916 24.5804C30.0912 24.7143 29.935 24.9047 29.8428 25.1274C29.7505 25.3501 29.7264 25.5951 29.7734 25.8315C29.8204 26.0679 29.9365 26.2851 30.107 26.4555C30.2774 26.626 30.4946 26.7421 30.731 26.7891C30.9674 26.8361 31.2124 26.812 31.4351 26.7197C31.6578 26.6275 31.8482 26.4713 31.9821 26.2709C32.116 26.0704 32.1875 25.8348 32.1875 25.5938C32.1875 25.2705 32.0591 24.9605 31.8305 24.732C31.602 24.5034 31.292 24.375 30.9688 24.375Z" fill="#21272A"/>
<path d="M30.9688 18.2812C30.7277 18.2812 30.4921 18.3527 30.2916 18.4866C30.0912 18.6206 29.935 18.8109 29.8428 19.0336C29.7505 19.2563 29.7264 19.5014 29.7734 19.7378C29.8204 19.9742 29.9365 20.1913 30.107 20.3618C30.2774 20.5322 30.4946 20.6483 30.731 20.6953C30.9674 20.7424 31.2124 20.7182 31.4351 20.626C31.6578 20.5337 31.8482 20.3775 31.9821 20.1771C32.116 19.9767 32.1875 19.741 32.1875 19.5C32.1875 19.1768 32.0591 18.8668 31.8305 18.6382C31.602 18.4097 31.292 18.2812 30.9688 18.2812Z" fill="#21272A"/>
<path d="M26.0938 30.4688C25.8527 30.4688 25.6171 30.5402 25.4166 30.6741C25.2162 30.8081 25.06 30.9984 24.9678 31.2211C24.8755 31.4438 24.8514 31.6889 24.8984 31.9253C24.9454 32.1617 25.0615 32.3788 25.232 32.5493C25.4024 32.7197 25.6196 32.8358 25.856 32.8828C26.0924 32.9299 26.3374 32.9057 26.5601 32.8135C26.7828 32.7212 26.9732 32.565 27.1071 32.3646C27.241 32.1642 27.3125 31.9285 27.3125 31.6875C27.3125 31.3643 27.1841 31.0543 26.9555 30.8257C26.727 30.5972 26.417 30.4688 26.0938 30.4688Z" fill="#21272A"/>
<path d="M26.0938 24.375C25.8527 24.375 25.6171 24.4465 25.4166 24.5804C25.2162 24.7143 25.06 24.9047 24.9678 25.1274C24.8755 25.3501 24.8514 25.5951 24.8984 25.8315C24.9454 26.0679 25.0615 26.2851 25.232 26.4555C25.4024 26.626 25.6196 26.7421 25.856 26.7891C26.0924 26.8361 26.3374 26.812 26.5601 26.7197C26.7828 26.6275 26.9732 26.4713 27.1071 26.2709C27.241 26.0704 27.3125 25.8348 27.3125 25.5938C27.3125 25.2705 27.1841 24.9605 26.9555 24.732C26.727 24.5034 26.417 24.375 26.0938 24.375Z" fill="#21272A"/>
<path d="M26.0938 18.2812C25.8527 18.2812 25.6171 18.3527 25.4166 18.4866C25.2162 18.6206 25.06 18.8109 24.9678 19.0336C24.8755 19.2563 24.8514 19.5014 24.8984 19.7378C24.9454 19.9742 25.0615 20.1913 25.232 20.3618C25.4024 20.5322 25.6196 20.6483 25.856 20.6953C26.0924 20.7424 26.3374 20.7182 26.5601 20.626C26.7828 20.5337 26.9732 20.3775 27.1071 20.1771C27.241 19.9767 27.3125 19.741 27.3125 19.5C27.3125 19.1768 27.1841 18.8668 26.9555 18.6382C26.727 18.4097 26.417 18.2812 26.0938 18.2812Z" fill="#21272A"/>
</svg>
