<svg width="43" height="42" viewBox="0 0 43 42" fill="none" xmlns="http://www.w3.org/2000/svg">
<path fill-rule="evenodd" clip-rule="evenodd" d="M4.47048 7.90798C5.33197 7.04648 6.50041 6.5625 7.71875 6.5625H26.75C27.4749 6.5625 28.0625 7.15013 28.0625 7.875C28.0625 8.59987 27.4749 9.1875 26.75 9.1875H7.71875C7.19661 9.1875 6.69585 9.39492 6.32663 9.76413C5.95742 10.1333 5.75 10.6341 5.75 11.1562V30.8438C5.75 31.3659 5.95742 31.8667 6.32663 32.2359C6.69585 32.6051 7.19661 32.8125 7.71875 32.8125H35.1771C35.6992 32.8125 36.2 32.6051 36.5692 32.2359C36.9384 31.8667 37.1458 31.3659 37.1458 30.8438V19.6055C37.1458 18.8806 37.7334 18.293 38.4583 18.293C39.1832 18.293 39.7708 18.8806 39.7708 19.6055V30.8438C39.7708 32.0621 39.2868 33.2305 38.4253 34.092C37.5638 34.9535 36.3954 35.4375 35.1771 35.4375H7.71875C6.50041 35.4375 5.33197 34.9535 4.47048 34.092C3.60898 33.2305 3.125 32.0621 3.125 30.8438V11.1562C3.125 9.93791 3.60898 8.76947 4.47048 7.90798Z" fill="#21272A"/>
<path fill-rule="evenodd" clip-rule="evenodd" d="M8.65154 12.3193C9.09656 11.7471 9.92118 11.644 10.4934 12.089L21.512 20.6591L27.846 15.878C28.4246 15.4413 29.2476 15.5563 29.6843 16.1348C30.1211 16.7134 30.0061 17.5364 29.4275 17.9731L22.2908 23.3601C21.8172 23.7176 21.1626 23.7129 20.6943 23.3486L8.88176 14.1611C8.30958 13.7161 8.20651 12.8914 8.65154 12.3193Z" fill="#21272A"/>
<path d="M35.9334 14.4376C38.1058 14.4376 39.8668 12.6766 39.8668 10.5042C39.8668 8.33184 38.1058 6.5708 35.9334 6.5708C33.761 6.5708 32 8.33184 32 10.5042C32 12.6766 33.761 14.4376 35.9334 14.4376Z" fill="#21272A"/>
<path d="M35.9373 15.7501C34.8998 15.7501 33.8855 15.4424 33.0228 14.866C32.1602 14.2896 31.4878 13.4703 31.0907 12.5117C30.6937 11.5532 30.5898 10.4984 30.7922 9.48078C30.9946 8.46317 31.4942 7.52844 32.2279 6.79479C32.9615 6.06114 33.8963 5.56152 34.9139 5.3591C35.9315 5.15669 36.9863 5.26057 37.9448 5.65762C38.9034 6.05467 39.7227 6.72705 40.2991 7.58974C40.8755 8.45242 41.1832 9.46666 41.1832 10.5042C41.1821 11.8952 40.6291 13.2289 39.6455 14.2124C38.662 15.196 37.3283 15.749 35.9373 15.7501ZM35.9373 7.8833C35.418 7.88249 34.91 8.03576 34.4778 8.3237C34.0456 8.61165 33.7085 9.02133 33.5092 9.50091C33.3099 9.9805 33.2573 10.5084 33.3581 11.0179C33.459 11.5274 33.7087 11.9955 34.0756 12.363C34.4425 12.7305 34.9103 12.9809 35.4196 13.0826C35.9289 13.1842 36.4569 13.1324 36.9368 12.9339C37.4167 12.7353 37.8269 12.3989 38.1155 11.9671C38.4041 11.5353 38.5582 11.0277 38.5582 10.5083C38.5582 9.81282 38.2822 9.14576 37.7908 8.6536C37.2994 8.16143 36.6328 7.88439 35.9373 7.8833Z" fill="#21272A"/>
</svg>
