<svg width="296" height="60" viewBox="0 0 296 60" fill="none" xmlns="http://www.w3.org/2000/svg">
<g clip-path="url(#clip0_403_362)">
<path d="M7.57192 12.7681C6.30947 11.6951 4.41619 11.8486 3.34316 13.1111C2.27012 14.3735 2.42367 16.2668 3.68611 17.3398L7.57192 12.7681ZM293.721 26.2141C295.244 25.5613 295.949 23.7976 295.296 22.2748C294.643 20.7519 292.88 20.0467 291.357 20.6995L293.721 26.2141ZM19.6 55.877C20.3997 57.3281 22.2243 57.8562 23.6754 57.0566C25.1265 56.2569 25.6546 54.4323 24.8549 52.9812L19.6 55.877ZM39.622 6.14966C41.268 5.96077 42.4493 4.47326 42.2604 2.82721C42.0715 1.18116 40.584 -0.000104774 38.938 0.188782L39.622 6.14966ZM5.62901 15.054C3.68611 17.3398 3.68799 17.3414 3.69026 17.3434C3.69154 17.3445 3.69421 17.3467 3.69677 17.3489C3.7019 17.3532 3.70861 17.3589 3.71688 17.3658C3.73344 17.3798 3.75628 17.3989 3.78541 17.4231C3.84366 17.4716 3.92705 17.5405 4.03548 17.6287C4.25234 17.8053 4.56942 18.0595 4.98606 18.3836C5.81932 19.0318 7.05099 19.9597 8.6759 21.105C11.9255 23.3956 16.7492 26.5569 23.1055 30.0904C35.8178 37.1572 54.666 45.7161 79.3133 51.7724C128.654 63.8962 201.048 65.9427 293.721 26.2141L291.357 20.6995C199.883 59.9138 128.822 57.759 80.745 45.9457C56.683 40.0333 38.3312 31.6897 26.0207 24.8462C19.8656 21.4245 15.2223 18.3787 12.1327 16.2009C10.588 15.1121 9.43203 14.2405 8.67005 13.6477C8.28907 13.3514 8.00663 13.1247 7.82337 12.9756C7.73175 12.901 7.66493 12.8458 7.62299 12.8109C7.60202 12.7934 7.58727 12.7811 7.57875 12.7739C7.5745 12.7703 7.5718 12.768 7.57066 12.7671C7.57094 12.7674 7.57009 12.7666 7.57066 12.7671C7.57136 12.7677 7.57192 12.7681 5.62901 15.054ZM22.2275 54.4291C24.8549 52.9812 24.855 52.9814 24.8549 52.9812C24.8548 52.981 24.8545 52.9803 24.8542 52.9798C24.8536 52.9788 24.8527 52.9772 24.8515 52.975C24.8491 52.9706 24.8455 52.964 24.8406 52.9551C24.8308 52.9374 24.8162 52.9107 24.7967 52.8753C24.7578 52.8046 24.6999 52.6991 24.6243 52.5611C24.473 52.2851 24.2509 51.8792 23.9687 51.3612C23.4042 50.325 22.5994 48.8409 21.6393 47.0513C19.7182 43.4704 17.1797 38.6749 14.7033 33.8033C12.2209 28.92 9.8253 24.0082 8.17527 20.1791C7.34499 18.2524 6.73944 16.6819 6.40095 15.5606C6.22827 14.9886 6.15954 14.6443 6.1411 14.4828C6.13189 14.4021 6.14703 14.463 6.13012 14.6152C6.11661 14.7368 6.054 15.202 5.68407 15.7081L0.840184 12.1674C0.350973 12.8367 0.213291 13.5344 0.166827 13.9525C0.11696 14.4012 0.140981 14.8231 0.179817 15.1633C0.257475 15.8435 0.441511 16.5808 0.656962 17.2945C1.09471 18.7446 1.80684 20.5619 2.66511 22.5536C4.39219 26.5615 6.85723 31.6092 9.35476 36.5223C11.8582 41.4471 14.419 46.2847 16.3522 49.8879C17.3192 51.6903 18.1302 53.1859 18.6998 54.2315C18.9847 54.7544 19.2092 55.1648 19.3628 55.445C19.4396 55.5851 19.4986 55.6926 19.5386 55.7654C19.5586 55.8017 19.5738 55.8294 19.5841 55.8481C19.5893 55.8575 19.5932 55.8646 19.5958 55.8694C19.5972 55.8718 19.5982 55.8736 19.5989 55.8749C19.5992 55.8755 19.5998 55.8767 19.6 55.877C19.6002 55.8774 19.6 55.877 22.2275 54.4291ZM5.68407 15.7081C5.44047 16.0413 5.24403 16.109 5.50563 15.9488C5.68795 15.8372 5.99076 15.6771 6.44052 15.4727C7.33433 15.0663 8.58659 14.5838 10.1312 14.0476C13.2068 12.9799 17.2146 11.7768 21.3277 10.6295C25.4322 9.48449 29.5993 8.40664 32.9767 7.58867C36.4466 6.74828 38.8674 6.23626 39.622 6.14966L38.938 0.188782C37.736 0.32671 34.9155 0.945647 31.5644 1.75726C28.1207 2.59129 23.8869 3.68647 19.7155 4.85014C15.5526 6.01142 11.4092 7.25268 8.16347 8.37947C6.54734 8.94052 5.09628 9.49285 3.95728 10.0107C3.39064 10.2683 2.84467 10.5427 2.37247 10.8318C1.97955 11.0724 1.32315 11.5068 0.840184 12.1674L5.68407 15.7081Z" fill="#E2DEC5"/>
</g>
<defs>
<clipPath id="clip0_403_362">
<rect width="296" height="60" fill="white"/>
</clipPath>
</defs>
</svg>
