<svg width="25" height="24" viewBox="0 0 25 24" fill="none" xmlns="http://www.w3.org/2000/svg">
<path fill-rule="evenodd" clip-rule="evenodd" d="M21.5 15C21.9142 15 22.25 15.3358 22.25 15.75V18.375C22.25 19.2701 21.8944 20.1286 21.2615 20.7615C20.6286 21.3944 19.7701 21.75 18.875 21.75H16.25C15.8358 21.75 15.5 21.4142 15.5 21C15.5 20.5858 15.8358 20.25 16.25 20.25H18.875C19.3723 20.25 19.8492 20.0525 20.2008 19.7008C20.5525 19.3492 20.75 18.8723 20.75 18.375V15.75C20.75 15.3358 21.0858 15 21.5 15Z" fill="#21272A"/>
<path fill-rule="evenodd" clip-rule="evenodd" d="M15.5 3C15.5 2.58579 15.8358 2.25 16.25 2.25H18.875C19.7701 2.25 20.6286 2.60558 21.2615 3.23851C21.8944 3.87145 22.25 4.72989 22.25 5.625V8.25C22.25 8.66421 21.9142 9 21.5 9C21.0858 9 20.75 8.66421 20.75 8.25V5.625C20.75 5.12772 20.5525 4.65081 20.2008 4.29918C19.8492 3.94754 19.3723 3.75 18.875 3.75H16.25C15.8358 3.75 15.5 3.41421 15.5 3Z" fill="#21272A"/>
<path fill-rule="evenodd" clip-rule="evenodd" d="M3.5 15C3.91421 15 4.25 15.3358 4.25 15.75V18.375C4.25 18.8723 4.44754 19.3492 4.79918 19.7008C5.15081 20.0525 5.62772 20.25 6.125 20.25H8.75C9.16421 20.25 9.5 20.5858 9.5 21C9.5 21.4142 9.16421 21.75 8.75 21.75H6.125C5.22989 21.75 4.37145 21.3944 3.73851 20.7615C3.10558 20.1286 2.75 19.2701 2.75 18.375V15.75C2.75 15.3358 3.08579 15 3.5 15Z" fill="#21272A"/>
<path fill-rule="evenodd" clip-rule="evenodd" d="M6.125 3.75C5.62772 3.75 5.15081 3.94754 4.79918 4.29918C4.44754 4.65081 4.25 5.12772 4.25 5.625V8.25C4.25 8.66421 3.91421 9 3.5 9C3.08579 9 2.75 8.66421 2.75 8.25V5.625C2.75 4.72989 3.10558 3.87145 3.73851 3.23851C4.37145 2.60558 5.22989 2.25 6.125 2.25H8.75C9.16421 2.25 9.5 2.58579 9.5 3C9.5 3.41421 9.16421 3.75 8.75 3.75H6.125Z" fill="#21272A"/>
</svg>
