<svg width="25" height="24" viewBox="0 0 25 24" fill="none" xmlns="http://www.w3.org/2000/svg">
<path fill-rule="evenodd" clip-rule="evenodd" d="M19.4178 1.66157C20.4239 1.48302 21.3868 1.44374 22.1686 1.63444C22.3443 1.67663 22.5044 1.76774 22.6305 1.89724C22.7551 2.02524 22.8413 2.18554 22.8794 2.35991C23.063 3.16484 23.0249 4.13595 22.8458 5.14965C22.6645 6.17622 22.3293 7.29714 21.8758 8.42233C20.9721 10.6645 19.5694 12.9937 17.879 14.6753C17.3822 15.1752 16.8498 15.638 16.286 16.0604C16.323 16.9807 16.218 17.933 15.8429 18.7937L15.8425 18.7946C15.2348 20.1846 14.1399 21.0574 13.0853 21.5994C12.0339 22.1398 10.977 22.3761 10.3498 22.4769C10.1725 22.5055 9.99088 22.493 9.81912 22.4403C9.64736 22.3876 9.49001 22.2961 9.35925 22.1729C9.22849 22.0497 9.12781 21.898 9.06499 21.7297C9.00217 21.5614 8.9789 21.3809 8.99697 21.2021C8.99718 21.2 8.99741 21.1979 8.99764 21.1957L9.32802 18.1855C9.29456 18.1821 9.26112 18.1786 9.2277 18.1749C8.85957 18.1369 8.51594 17.9726 8.25532 17.7097C8.25472 17.7091 8.25413 17.7085 8.25353 17.7079L6.78829 16.2427C6.78769 16.2421 6.78708 16.2415 6.78648 16.2409C6.52377 15.9804 6.3594 15.637 6.3213 15.2691C6.3174 15.2339 6.3137 15.1987 6.31021 15.1636L3.2972 15.4943L3.2941 15.4947L3.29177 15.4949C3.11278 15.5132 2.93198 15.4901 2.76337 15.4273C2.59476 15.3645 2.44287 15.2637 2.31949 15.1328C2.1961 15.0019 2.10451 14.8443 2.05184 14.6722C1.99916 14.5002 1.98681 14.3183 2.01573 14.1407L2.01595 14.1394C2.11893 13.5142 2.3563 12.4589 2.8975 11.4081C3.44011 10.3544 4.3126 9.26031 5.7016 8.64958L5.70359 8.64871C6.56471 8.27306 7.5221 8.16823 8.44811 8.20866C8.87049 7.64698 9.33306 7.11643 9.83226 6.62124C11.5187 4.93643 13.8831 3.53441 16.1401 2.63127C17.2728 2.17799 18.3975 1.84266 19.4178 1.66157ZM16.6973 4.02391C14.5748 4.87327 12.3987 6.17722 10.8916 7.68324L10.8896 7.68522C10.3513 8.21909 9.86047 8.79877 9.42264 9.41771C9.26819 9.63606 9.00914 9.75564 8.74277 9.73153C7.82983 9.64894 6.98529 9.72641 6.30444 10.0231C5.32723 10.4531 4.67233 11.238 4.23105 12.0948C3.89112 12.7549 3.69249 13.431 3.57819 13.9545L6.93366 13.5861C7.14436 13.563 7.355 13.6301 7.5135 13.7708C7.67199 13.9116 7.76353 14.1128 7.76548 14.3247C7.76787 14.5859 7.78355 14.8468 7.81246 15.1064C7.81275 15.109 7.81303 15.1117 7.81329 15.1143C7.81564 15.1376 7.82605 15.1594 7.84272 15.1758L7.84584 15.1789L9.31724 16.6503L9.32029 16.6534C9.33679 16.6701 9.35859 16.6805 9.38193 16.6828C9.38474 16.6831 9.38755 16.6834 9.39035 16.6837C9.64834 16.7125 9.90761 16.7282 10.1672 16.7307C10.3791 16.7328 10.5802 16.8244 10.7208 16.9828C10.8615 17.1413 10.9285 17.3519 10.9054 17.5625L10.5374 20.9157C11.0608 20.8029 11.7385 20.6051 12.3997 20.2653C13.2571 19.8246 14.0411 19.1701 14.4679 18.1942C14.7654 17.5114 14.8428 16.6707 14.7644 15.7605C14.7415 15.4947 14.8615 15.2367 15.0796 15.0831C15.7002 14.6457 16.2815 14.155 16.8166 13.6164L16.8198 13.6132C18.334 12.1074 19.6371 9.96412 20.4846 7.86157C20.9068 6.81404 21.2087 5.79422 21.3687 4.88869C21.4984 4.15469 21.5291 3.52716 21.4735 3.03301C21.008 2.98052 20.4019 3.01035 19.68 3.13849C18.7795 3.29829 17.7545 3.60087 16.6973 4.02391ZM10.1115 20.9959C10.1112 20.996 10.1109 20.996 10.1106 20.9961L10.1112 20.996C10.1113 20.9959 10.1114 20.9959 10.1115 20.9959ZM15.9147 7.34879C15.6672 7.34879 15.4252 7.4222 15.2194 7.55974C15.0135 7.69727 14.8531 7.89276 14.7584 8.12147C14.6637 8.35018 14.6389 8.60184 14.6872 8.84463C14.7355 9.08742 14.8548 9.31042 15.0298 9.48545L14.4994 10.016L15.0305 9.48607C15.1465 9.60235 15.2843 9.6946 15.4361 9.75755C15.5878 9.82049 15.7505 9.85289 15.9147 9.85289C16.079 9.85289 16.2417 9.82049 16.3934 9.75755C16.5451 9.6946 16.683 9.60235 16.799 9.48607L16.7996 9.48545C16.9747 9.31042 17.0939 9.08742 17.1422 8.84463C17.1905 8.60184 17.1658 8.35018 17.071 8.12147C16.9763 7.89276 16.8159 7.69728 16.6101 7.55974C16.4043 7.4222 16.1623 7.34879 15.9147 7.34879ZM13.9691 10.546C13.5843 10.1612 13.3223 9.67105 13.2161 9.13739C13.1099 8.60362 13.1643 8.05034 13.3726 7.54752C13.5808 7.04471 13.9335 6.61493 14.386 6.31256C14.8385 6.01018 15.3705 5.84879 15.9147 5.84879C16.459 5.84879 16.991 6.01018 17.4435 6.31256C17.896 6.61493 18.2487 7.0447 18.4569 7.54752C18.6651 8.05034 18.7196 8.60362 18.6134 9.13739C18.5072 9.67087 18.2453 10.1609 17.8608 10.5456C17.6054 10.8015 17.3021 11.0045 16.9682 11.1431C16.6342 11.2816 16.2762 11.3529 15.9147 11.3529C15.5532 11.3529 15.1952 11.2816 14.8613 11.1431C14.5275 11.0046 14.2243 10.8017 13.9691 10.546Z" fill="#21272A"/>
<path fill-rule="evenodd" clip-rule="evenodd" d="M6.38379 16.4086C6.43426 16.8197 6.14188 17.1939 5.73076 17.2444C5.42976 17.2813 5.1497 17.4177 4.93496 17.6318C4.86291 17.7044 4.7466 17.9037 4.63178 18.2796C4.52419 18.6319 4.44365 19.0508 4.38504 19.4664C4.34848 19.7256 4.32146 19.9762 4.3016 20.1984C4.52389 20.1785 4.77473 20.1514 5.03413 20.1148C5.44983 20.0561 5.86864 19.9755 6.22063 19.8679C6.59728 19.7527 6.79573 19.6361 6.86718 19.5646L6.86845 19.5633C7.08299 19.3497 7.21929 19.07 7.25534 18.7694C7.30465 18.3581 7.67803 18.0647 8.0893 18.114C8.50057 18.1634 8.79398 18.5367 8.74467 18.948C8.66849 19.5832 8.38056 20.1743 7.92733 20.6258C7.5856 20.9672 7.09068 21.1703 6.65938 21.3023C6.20308 21.4418 5.69913 21.5358 5.24373 21.6001C4.78489 21.6648 4.35608 21.702 4.04319 21.7231C3.88621 21.7337 3.75712 21.7403 3.66646 21.7443C3.6211 21.7462 3.58527 21.7476 3.5603 21.7484C3.54781 21.7489 3.53802 21.7492 3.5311 21.7494L3.5229 21.7496L3.51934 21.7497C3.51922 21.7497 3.51911 21.7497 3.5 21C2.75024 20.9808 2.75025 20.9807 2.75025 20.9806L2.75035 20.977L2.75058 20.9688C2.75079 20.9619 2.75109 20.9522 2.75152 20.9397C2.75237 20.9147 2.75371 20.8789 2.7557 20.8336C2.75967 20.743 2.76627 20.6139 2.77683 20.457C2.79789 20.1443 2.83505 19.7157 2.89973 19.257C2.96393 18.8017 3.05782 18.2978 3.1972 17.8415C3.3291 17.4096 3.53203 16.9145 3.87299 16.5724L3.87426 16.5711C4.32568 16.1203 4.91478 15.8333 5.54799 15.7555C5.95912 15.7051 6.33332 15.9974 6.38379 16.4086ZM3.5 21L2.75024 20.9808C2.745 21.1863 2.82432 21.3849 2.96967 21.5303C3.11501 21.6756 3.31363 21.7549 3.51911 21.7497L3.5 21Z" fill="#21272A"/>
</svg>
