<svg width="25" height="24" viewBox="0 0 25 24" fill="none" xmlns="http://www.w3.org/2000/svg">
<path fill-rule="evenodd" clip-rule="evenodd" d="M3.6875 3C3.58395 3 3.5 3.08395 3.5 3.1875V9.5625C3.5 9.66605 3.58395 9.75 3.6875 9.75H10.0625C10.1661 9.75 10.25 9.66605 10.25 9.5625V3.1875C10.25 3.08395 10.1661 3 10.0625 3H3.6875ZM2 3.1875C2 2.25552 2.75552 1.5 3.6875 1.5H10.0625C10.9945 1.5 11.75 2.25552 11.75 3.1875V9.5625C11.75 10.4945 10.9945 11.25 10.0625 11.25H3.6875C2.75552 11.25 2 10.4945 2 9.5625V3.1875Z" fill="#21272A"/>
<path fill-rule="evenodd" clip-rule="evenodd" d="M14.9375 3C14.8339 3 14.75 3.08395 14.75 3.1875V9.5625C14.75 9.66605 14.8339 9.75 14.9375 9.75H21.3125C21.4161 9.75 21.5 9.66605 21.5 9.5625V3.1875C21.5 3.08395 21.4161 3 21.3125 3H14.9375ZM13.25 3.1875C13.25 2.25552 14.0055 1.5 14.9375 1.5H21.3125C22.2445 1.5 23 2.25552 23 3.1875V9.5625C23 10.4945 22.2445 11.25 21.3125 11.25H14.9375C14.0055 11.25 13.25 10.4945 13.25 9.5625V3.1875Z" fill="#21272A"/>
<path fill-rule="evenodd" clip-rule="evenodd" d="M3.6875 14.25C3.58395 14.25 3.5 14.3339 3.5 14.4375V20.8125C3.5 20.9161 3.58395 21 3.6875 21H10.0625C10.1661 21 10.25 20.9161 10.25 20.8125V14.4375C10.25 14.3339 10.1661 14.25 10.0625 14.25H3.6875ZM2 14.4375C2 13.5055 2.75552 12.75 3.6875 12.75H10.0625C10.9945 12.75 11.75 13.5055 11.75 14.4375V20.8125C11.75 21.7445 10.9945 22.5 10.0625 22.5H3.6875C2.75552 22.5 2 21.7445 2 20.8125V14.4375Z" fill="#21272A"/>
<path fill-rule="evenodd" clip-rule="evenodd" d="M14.9375 14.25C14.8339 14.25 14.75 14.3339 14.75 14.4375V20.8125C14.75 20.9161 14.8339 21 14.9375 21H21.3125C21.4161 21 21.5 20.9161 21.5 20.8125V14.4375C21.5 14.3339 21.4161 14.25 21.3125 14.25H14.9375ZM13.25 14.4375C13.25 13.5055 14.0055 12.75 14.9375 12.75H21.3125C22.2445 12.75 23 13.5055 23 14.4375V20.8125C23 21.7445 22.2445 22.5 21.3125 22.5H14.9375C14.0055 22.5 13.25 21.7445 13.25 20.8125V14.4375Z" fill="#21272A"/>
</svg>
