<svg width="78" height="78" viewBox="0 0 78 78" fill="none" xmlns="http://www.w3.org/2000/svg">
<path fill-rule="evenodd" clip-rule="evenodd" d="M63.5229 38.2428C64.9507 39.6706 64.9507 41.9856 63.5229 43.4135L41.5854 65.351C40.1575 66.7788 37.8425 66.7788 36.4146 65.351L14.4771 43.4135C13.0493 41.9856 13.0493 39.6706 14.4771 38.2428C15.905 36.8149 18.22 36.8149 19.6479 38.2428L39 57.5949L58.3521 38.2428C59.78 36.8149 62.095 36.8149 63.5229 38.2428Z" fill="#21272A"/>
<path fill-rule="evenodd" clip-rule="evenodd" d="M39 11.5781C41.0193 11.5781 42.6562 13.2151 42.6562 15.2344L42.6562 59.7188C42.6562 61.738 41.0193 63.375 39 63.375C36.9807 63.375 35.3437 61.738 35.3437 59.7187L35.3437 15.2344C35.3437 13.2151 36.9807 11.5781 39 11.5781Z" fill="#21272A"/>
</svg>
