<svg width="288" height="80" viewBox="0 0 288 80" fill="none" xmlns="http://www.w3.org/2000/svg">
<mask id="mask0_514_202" style="mask-type:luminance" maskUnits="userSpaceOnUse" x="0" y="0" width="288" height="80">
<path d="M287.998 0H0V80H287.998V0Z" fill="white"/>
</mask>
<g mask="url(#mask0_514_202)">
<path d="M41.4549 48.3089C41.4549 52.2288 40.2865 56.0606 38.0976 59.3199C35.9086 62.5791 32.7974 65.1194 29.1573 66.6195C25.5172 68.1196 21.5117 68.512 17.6474 67.7473C13.7831 66.9826 10.2335 65.095 7.44754 62.3232C4.66153 59.5515 2.76424 56.02 1.99558 52.1755C1.22692 48.3309 1.62142 44.3459 3.1292 40.7245C4.63698 37.103 7.1903 34.0076 10.4663 31.8299C13.7423 29.6521 17.5938 28.4897 21.5338 28.4897C26.8172 28.4897 31.8842 30.5778 35.6201 34.2946C39.356 38.0115 41.4549 43.0526 41.4549 48.3089Z" fill="white"/>
<path d="M21.5324 69.7329C17.2737 69.7329 13.1107 68.4765 9.56966 66.1226C6.02867 63.7687 3.26881 60.423 1.63907 56.5085C0.00932968 52.5941 -0.417084 48.2868 0.413749 44.1313C1.24458 39.9757 3.29535 36.1586 6.30671 33.1627C9.31808 30.1667 13.1548 28.1264 17.3317 27.2998C21.5086 26.4732 25.838 26.8975 29.7725 28.5189C33.7071 30.1403 37.07 32.886 39.436 36.4089C41.802 39.9318 43.0649 44.0736 43.0649 48.3105C43.0584 53.9901 40.7877 59.4352 36.751 63.4513C32.7143 67.4674 27.2412 69.7264 21.5324 69.7329ZM21.5324 30.0929C17.9108 30.0929 14.3705 31.1613 11.3592 33.1631C8.34798 35.1649 6.00098 38.0101 4.61504 41.339C3.2291 44.6678 2.86648 48.3308 3.57302 51.8646C4.27957 55.3985 6.02355 58.6446 8.58442 61.1924C11.1453 63.7402 14.4081 65.4752 17.9601 66.1782C21.5121 66.8811 25.1939 66.5203 28.5399 65.1415C31.8858 63.7626 34.7456 61.4276 36.7577 58.4317C38.7698 55.4359 39.8437 51.9137 39.8437 48.3105C39.8381 43.4806 37.907 38.8502 34.4742 35.4349C31.0414 32.0197 26.3872 30.0985 21.5324 30.0929Z" fill="#E2DEC5"/>
<path d="M59.3347 21.4208C59.3351 25.341 58.1669 29.1732 55.9779 32.4327C53.7889 35.6923 50.6775 38.2328 47.0372 39.733C43.3968 41.2332 39.3911 41.6256 35.5265 40.8607C31.662 40.0957 28.1122 38.2078 25.3263 35.4356C22.5403 32.6634 20.6432 29.1315 19.875 25.2866C19.1067 21.4417 19.5019 17.4565 21.0103 13.835C22.5188 10.2135 25.0729 7.11839 28.3496 4.94114C31.6263 2.7639 35.4783 1.6023 39.4186 1.60327C44.7019 1.60371 49.7686 3.69193 53.5045 7.40866C57.2403 11.1254 59.3392 16.1662 59.3397 21.4225" fill="white"/>
<path d="M39.4123 42.8447C35.1536 42.8447 30.9905 41.5883 27.4495 39.2344C23.9086 36.8805 21.1487 33.5348 19.519 29.6204C17.8892 25.7059 17.4628 21.3986 18.2936 17.2431C19.1245 13.0875 21.1752 9.27045 24.1866 6.27447C27.198 3.2785 31.0347 1.23822 35.2116 0.411634C39.3884 -0.414952 43.7179 0.00928199 47.6524 1.63069C51.587 3.2521 54.9499 5.99786 57.3159 9.52075C59.6819 13.0436 60.9448 17.1854 60.9448 21.4224C60.9382 27.1019 58.6676 32.547 54.6309 36.5631C50.5942 40.5792 45.1211 42.8383 39.4123 42.8447ZM39.4123 3.20471C35.7907 3.20471 32.2504 4.27316 29.2391 6.27494C26.2279 8.27672 23.8809 11.1219 22.4949 14.4508C21.109 17.7796 20.7464 21.4426 21.4529 24.9765C22.1595 28.5103 23.9034 31.7564 26.4643 34.3042C29.0252 36.852 32.2879 38.5871 35.84 39.29C39.392 39.9929 43.0738 39.6321 46.4197 38.2533C49.7657 36.8744 52.6255 34.5394 54.6376 31.5436C56.6497 28.5477 57.7236 25.0255 57.7236 21.4224C57.7184 16.5923 55.7875 11.9616 52.3546 8.54627C48.9217 5.13092 44.2672 3.2099 39.4123 3.20471Z" fill="#83DCD1"/>
<path d="M77.2146 48.3089C77.2146 52.2288 76.0463 56.0606 73.8573 59.3199C71.6684 62.5791 68.5571 65.1194 64.917 66.6195C61.277 68.1196 57.2715 68.512 53.4072 67.7473C49.5429 66.9826 45.9933 65.095 43.2073 62.3232C40.4213 59.5515 38.524 56.02 37.7553 52.1755C36.9867 48.3309 37.3812 44.3459 38.889 40.7245C40.3967 37.103 42.9501 34.0076 46.2261 31.8299C49.5021 29.6521 53.3536 28.4897 57.2936 28.4897C62.577 28.4897 67.644 30.5778 71.3799 34.2946C75.1158 38.0115 77.2146 43.0526 77.2146 48.3089Z" fill="white"/>
<path d="M57.2917 69.7329C53.033 69.7329 48.8699 68.4765 45.3289 66.1226C41.788 63.7687 39.0281 60.423 37.3983 56.5085C35.7686 52.5941 35.3422 48.2868 36.173 44.1313C37.0039 39.9757 39.0546 36.1586 42.066 33.1627C45.0774 30.1667 48.9141 28.1264 53.091 27.2998C57.2678 26.4732 61.5973 26.8975 65.5318 28.5189C69.4664 30.1403 72.8293 32.886 75.1953 36.4089C77.5613 39.9318 78.8242 44.0736 78.8242 48.3105C78.8176 53.9901 76.547 59.4352 72.5103 63.4513C68.4736 67.4674 63.0005 69.7264 57.2917 69.7329ZM57.2917 30.0929C53.6701 30.0929 50.1298 31.1613 47.1185 33.1631C44.1073 35.1649 41.7603 38.0101 40.3743 41.339C38.9884 44.6678 38.6258 48.3308 39.3323 51.8646C40.0389 55.3985 41.7828 58.6446 44.3437 61.1924C46.9046 63.7402 50.1673 65.4752 53.7194 66.1782C57.2714 66.8811 60.9532 66.5203 64.2991 65.1415C67.6451 63.7626 70.5049 61.4276 72.517 58.4317C74.5291 55.4359 75.603 51.9137 75.603 48.3105C75.5973 43.4806 73.6663 38.8502 70.2335 35.4349C66.8007 32.0197 62.1464 30.0985 57.2917 30.0929Z" fill="#5F5651"/>
<path d="M39.4171 80C38.9897 80 38.5798 79.8311 38.2776 79.5305C37.9754 79.2298 37.8057 78.822 37.8057 78.3969V71.1353C37.819 70.7192 37.9946 70.3245 38.2951 70.0349C38.5957 69.7452 38.9978 69.5833 39.4163 69.5833C39.8347 69.5833 40.2368 69.7452 40.5374 70.0349C40.838 70.3245 41.0135 70.7192 41.0268 71.1353V78.3936C41.0268 78.8188 40.8571 79.2266 40.5549 79.5272C40.2527 79.8279 39.8428 79.9968 39.4154 79.9968" fill="#5F5651"/>
<path d="M12.4791 61.4198C12.3419 61.4195 12.2059 61.3929 12.0788 61.3414C11.8047 61.232 5.38208 58.5481 6.2649 49.1985C6.27022 49.0532 6.30532 48.9105 6.36806 48.7791C6.43079 48.6478 6.51983 48.5306 6.62971 48.4347C6.73959 48.3388 6.86801 48.2662 7.00708 48.2215C7.14615 48.1767 7.29294 48.1607 7.43846 48.1744C7.58397 48.1881 7.72514 48.2312 7.8533 48.3011C7.98147 48.3711 8.09393 48.4663 8.18379 48.581C8.27364 48.6957 8.339 48.8274 8.37586 48.9681C8.41272 49.1089 8.4203 49.2556 8.39813 49.3993C7.66299 57.1784 12.8287 59.3383 12.8746 59.3579C13.1073 59.4496 13.3004 59.6193 13.4206 59.8378C13.5408 60.0562 13.5805 60.3095 13.5328 60.554C13.4851 60.7984 13.353 61.0186 13.1594 61.1764C12.9658 61.3342 12.7229 61.4197 12.4726 61.4181" fill="#E2DEC5"/>
<path d="M54.2036 63.5521C53.5653 63.5521 46.9031 63.3382 44.1217 54.6367C44.0346 54.3667 44.0589 54.0735 44.1893 53.8213C44.3196 53.5692 44.5452 53.3789 44.8166 53.2923C45.088 53.2057 45.3828 53.2299 45.6362 53.3596C45.8896 53.4892 46.0809 53.7137 46.1679 53.9837C48.5276 61.3628 53.9804 61.4216 54.2085 61.4102C54.3495 61.4084 54.4894 61.4342 54.6203 61.4861C54.7512 61.5381 54.8705 61.6152 54.9715 61.7131C55.0724 61.8109 55.153 61.9276 55.2086 62.0565C55.2643 62.1853 55.2938 62.3238 55.2956 62.464C55.2975 62.6042 55.2715 62.7434 55.2193 62.8736C55.1671 63.0039 55.0896 63.1226 54.9912 63.223C54.8928 63.3235 54.7755 63.4036 54.646 63.459C54.5165 63.5143 54.3774 63.5437 54.2364 63.5456H54.197" fill="#5F5651"/>
<path d="M68.4861 24.121C68.1207 24.1208 67.7663 23.9971 67.4808 23.7702C67.1954 23.5432 66.996 23.2265 66.9153 22.8719C66.8346 22.5174 66.8774 22.1461 67.0367 21.8189C67.196 21.4918 67.4623 21.2282 67.792 21.0714L74.4247 17.9222C74.8089 17.7492 75.2459 17.7329 75.642 17.8768C76.0381 18.0207 76.3617 18.3134 76.5434 18.692C76.7251 19.0706 76.7503 19.505 76.6138 19.9019C76.4772 20.2988 76.1897 20.6267 75.8129 20.8151L69.1802 23.9643C68.9645 24.0693 68.7279 24.1251 68.4878 24.1276" fill="#5F5651"/>
<path d="M10.3855 23.7732C10.2027 23.7734 10.0212 23.7424 9.84887 23.6818L2.91918 21.2411C2.52574 21.0923 2.20644 20.7963 2.02956 20.4163C1.85268 20.0363 1.83227 19.6025 1.97268 19.2078C2.11309 18.813 2.40318 18.4886 2.78092 18.3038C3.15866 18.1191 3.59405 18.0887 3.99399 18.2193L10.922 20.6583C11.2794 20.785 11.5804 21.0331 11.772 21.3589C11.9635 21.6847 12.0334 22.0673 11.9693 22.4394C11.9052 22.8114 11.7112 23.149 11.4214 23.3927C11.1317 23.6364 10.7649 23.7722 10.3855 23.7732Z" fill="#5F5651"/>
<path d="M118.69 48.2208C118.234 48.4492 117.706 48.4894 117.221 48.3325C116.736 48.1757 116.333 47.8345 116.1 47.3833L113.575 42.3599H102.474C102.397 42.3672 102.319 42.356 102.247 42.3272L99.9171 47.3179C99.7638 47.6517 99.5179 47.935 99.2083 48.1345C98.8988 48.3341 98.5384 48.4416 98.1695 48.4444C97.8882 48.4457 97.6107 48.3796 97.3605 48.2518C97.1294 48.1472 96.9216 47.998 96.749 47.8128C96.5764 47.6276 96.4425 47.4101 96.3552 47.173C96.2678 46.9358 96.2288 46.6838 96.2402 46.4315C96.2517 46.1792 96.3134 45.9317 96.4219 45.7034L105.872 25.3862C106.026 25.0596 106.268 24.7816 106.57 24.5828C106.873 24.384 107.224 24.2723 107.587 24.2598H107.62C107.98 24.2631 108.333 24.3637 108.641 24.5508C108.949 24.738 109.2 25.0047 109.367 25.3226L119.559 45.6381C119.676 45.8635 119.747 46.11 119.766 46.3631C119.785 46.6161 119.753 46.8703 119.671 47.1107C119.59 47.3511 119.46 47.5727 119.291 47.7623C119.121 47.9519 118.915 48.1056 118.685 48.2142M111.629 38.4907L107.68 30.6349L104.023 38.4907H111.629Z" fill="white"/>
<path d="M128.304 48.4069C127.806 48.4056 127.329 48.2091 126.976 47.86C126.61 47.5036 126.401 47.0177 126.394 46.5083V25.8679C126.394 25.3642 126.596 24.8813 126.954 24.5252C127.312 24.169 127.797 23.9685 128.304 23.9676C128.555 23.9652 128.805 24.0127 129.037 24.1074C129.27 24.202 129.482 24.3419 129.66 24.5189C129.837 24.6958 129.978 24.9062 130.073 25.1379C130.168 25.3695 130.216 25.6177 130.214 25.8679V44.5753L139.731 44.479H139.764C140.019 44.4716 140.274 44.5152 140.512 44.6073C140.75 44.6994 140.967 44.8381 141.151 45.0152C141.334 45.1924 141.48 45.4043 141.579 45.6384C141.679 45.8726 141.73 46.1243 141.73 46.3785C141.73 46.6327 141.679 46.8844 141.579 47.1186C141.48 47.3527 141.334 47.5646 141.151 47.7417C140.967 47.9189 140.75 48.0576 140.512 48.1497C140.274 48.2418 140.019 48.2854 139.764 48.278L128.34 48.4069H128.304Z" fill="white"/>
<path d="M168.953 25.8679V46.3793C168.95 46.8978 168.741 47.3941 168.372 47.7608C168.004 48.1274 167.505 48.3349 166.984 48.3384C166.462 48.3384 165.961 48.132 165.592 47.7646C165.222 47.3972 165.015 46.8989 165.015 46.3793V31.8594L159.964 38.7471C159.782 38.9957 159.543 39.198 159.268 39.3379C158.993 39.4777 158.688 39.551 158.379 39.5519C158.071 39.5435 157.769 39.4668 157.494 39.3276C157.22 39.1884 156.98 38.9901 156.792 38.7471L151.736 31.8594V46.3891C151.736 46.9058 151.53 47.4014 151.163 47.7669C150.795 48.1323 150.297 48.3375 149.778 48.3375C149.258 48.3375 148.76 48.1323 148.393 47.7669C148.026 47.4014 147.819 46.9058 147.819 46.3891V25.6099C147.819 25.5789 147.852 25.5463 147.852 25.5136V25.4173C147.865 25.4047 147.874 25.3895 147.88 25.3729C147.885 25.3562 147.887 25.3385 147.885 25.321C147.885 25.2883 147.918 25.2573 147.918 25.2247C147.918 25.192 147.951 25.1937 147.951 25.161C147.951 25.1284 147.983 25.0973 147.983 25.0647C147.996 25.0521 148.005 25.0369 148.011 25.0202C148.017 25.0036 148.018 24.9858 148.016 24.9684L148.08 24.9031C148.08 24.8704 148.113 24.8394 148.113 24.8067L148.177 24.7414C148.177 24.7088 148.21 24.6778 148.241 24.6451C148.241 24.6125 148.274 24.6125 148.274 24.5814L148.371 24.5178C148.414 24.4746 148.457 24.4316 148.5 24.3888L148.564 24.3251C148.597 24.2925 148.597 24.2925 148.628 24.2925C148.628 24.2598 148.628 24.2598 148.661 24.2598C148.661 24.2272 148.694 24.2272 148.725 24.1962C148.758 24.1962 148.789 24.1635 148.822 24.1635C148.855 24.1309 148.886 24.1309 148.886 24.0998C148.904 24.102 148.921 24.1001 148.938 24.0945C148.955 24.0888 148.97 24.0795 148.983 24.0672C149.016 24.0672 149.048 24.0345 149.08 24.0345C149.111 24.0345 149.145 24.0019 149.176 24.0019C149.208 24.0019 149.209 24.0019 149.24 23.9692C149.286 23.9705 149.331 23.9592 149.37 23.9366H149.436C149.481 23.938 149.526 23.9267 149.565 23.9039H149.954C149.979 23.9065 150.002 23.9182 150.018 23.9366H150.115C150.133 23.9346 150.15 23.9365 150.167 23.9421C150.184 23.9478 150.199 23.957 150.212 23.9692H150.309C150.321 23.9815 150.337 23.9909 150.353 23.9965C150.37 24.0022 150.388 24.004 150.405 24.0019C150.418 24.0141 150.433 24.0234 150.45 24.029C150.467 24.0347 150.485 24.0365 150.502 24.0345C150.535 24.0672 150.535 24.0672 150.566 24.0672L150.663 24.1309C150.696 24.1309 150.727 24.1309 150.727 24.1635C150.76 24.1635 150.791 24.1962 150.824 24.2272C150.848 24.2308 150.871 24.2423 150.888 24.2598L150.985 24.3235L151.049 24.3872C151.082 24.3872 151.113 24.4198 151.146 24.4508C151.146 24.4835 151.178 24.4835 151.178 24.5145C151.211 24.5472 151.242 24.5472 151.242 24.5782C151.275 24.6108 151.306 24.6418 151.306 24.6745C151.339 24.6745 151.339 24.6745 151.37 24.7072L158.361 34.2706L165.384 24.7072C165.384 24.6745 165.384 24.6745 165.417 24.6745C165.417 24.6418 165.45 24.6108 165.481 24.5782C165.481 24.5455 165.514 24.5455 165.545 24.5145C165.545 24.4819 165.578 24.4819 165.61 24.4508C165.643 24.4198 165.643 24.3872 165.674 24.3872L165.738 24.3235C165.771 24.2909 165.804 24.2908 165.835 24.2598C165.868 24.2598 165.868 24.2272 165.899 24.2272C165.932 24.1945 165.963 24.1635 165.996 24.1635C166.029 24.1309 166.029 24.1309 166.06 24.1309L166.157 24.0672C166.174 24.0693 166.192 24.0675 166.209 24.0618C166.226 24.0562 166.241 24.0468 166.254 24.0345C166.287 24.0345 166.287 24.0345 166.318 24.0019C166.335 24.004 166.353 24.0022 166.37 23.9965C166.387 23.9909 166.402 23.9815 166.414 23.9692H166.511C166.524 23.957 166.539 23.9478 166.556 23.9421C166.573 23.9365 166.591 23.9346 166.608 23.9366H166.705C166.718 23.9243 166.733 23.9149 166.75 23.9093C166.766 23.9036 166.784 23.9018 166.802 23.9039H167.191C167.203 23.9162 167.219 23.9256 167.235 23.9312C167.252 23.9369 167.27 23.9387 167.287 23.9366H167.384C167.397 23.9489 167.412 23.9582 167.429 23.9639C167.446 23.9695 167.464 23.9714 167.481 23.9692C167.498 23.9876 167.52 23.9993 167.545 24.0019C167.609 24.0019 167.642 24.0345 167.675 24.0345C167.692 24.0521 167.714 24.0636 167.739 24.0672C167.751 24.0794 167.767 24.0887 167.783 24.0943C167.8 24.0999 167.818 24.1018 167.836 24.0998L167.932 24.1635C167.95 24.181 167.972 24.1925 167.996 24.1962L168.093 24.2598L168.126 24.2925L168.159 24.3251C168.175 24.3263 168.191 24.3333 168.203 24.345C168.215 24.3568 168.222 24.3723 168.223 24.3888C168.256 24.3888 168.287 24.4214 168.32 24.4525L168.384 24.5161C168.384 24.5488 168.416 24.5488 168.448 24.5798C168.448 24.6125 168.48 24.6125 168.48 24.6435C168.513 24.6761 168.544 24.7071 168.544 24.7398L168.608 24.8051C168.608 24.8361 168.641 24.8688 168.672 24.9014C168.672 24.9341 168.672 24.9341 168.705 24.9667C168.705 24.9994 168.738 25.0304 168.738 25.063C168.75 25.0757 168.76 25.0909 168.765 25.1075C168.771 25.1242 168.773 25.1419 168.771 25.1594C168.804 25.192 168.804 25.192 168.804 25.223C168.816 25.2356 168.825 25.2508 168.831 25.2675C168.837 25.2842 168.839 25.3019 168.837 25.3194C168.837 25.352 168.869 25.383 168.869 25.4157C168.867 25.4331 168.869 25.4508 168.875 25.4675C168.881 25.4841 168.89 25.4993 168.902 25.512V25.801C168.902 25.8336 168.935 25.8336 168.935 25.8646" fill="white"/>
<path d="M198.05 48.2207C197.595 48.4492 197.067 48.4894 196.582 48.3325C196.097 48.1757 195.694 47.8344 195.461 47.3832L192.936 42.3599H181.835C181.758 42.3672 181.68 42.356 181.608 42.3272L179.278 47.3179C179.125 47.6517 178.879 47.935 178.569 48.1345C178.26 48.3341 177.899 48.4416 177.53 48.4444C177.249 48.4456 176.972 48.3796 176.721 48.2518C176.491 48.1472 176.284 47.9982 176.111 47.8133C175.939 47.6285 175.806 47.4115 175.718 47.1749C175.631 46.9384 175.592 46.6869 175.603 46.4352C175.614 46.1834 175.675 45.9363 175.783 45.7082L185.233 25.3911C185.387 25.0645 185.628 24.7865 185.931 24.5877C186.234 24.3889 186.585 24.2771 186.948 24.2646H186.981C187.341 24.268 187.694 24.3685 188.002 24.5557C188.31 24.7429 188.561 25.0096 188.728 25.3274L198.923 45.6446C199.04 45.8699 199.111 46.1164 199.13 46.3693C199.15 46.6222 199.118 46.8765 199.036 47.1169C198.955 47.3572 198.825 47.5789 198.656 47.7685C198.487 47.9582 198.281 48.1119 198.05 48.2207ZM190.994 38.4907L187.046 30.6349L183.389 38.4907H190.994Z" fill="#E2DEC5"/>
<path d="M205.838 48.1979C205.383 48.4264 204.855 48.4666 204.37 48.3097C203.885 48.1528 203.482 47.8116 203.249 47.3604L200.723 42.3371H189.623C189.545 42.3444 189.468 42.3332 189.396 42.3044L187.068 47.2984C186.914 47.6322 186.668 47.9155 186.359 48.115C186.049 48.3145 185.689 48.422 185.32 48.4249C185.039 48.4261 184.761 48.36 184.511 48.2322C184.281 48.1277 184.073 47.9786 183.901 47.7938C183.729 47.609 183.595 47.392 183.508 47.1554C183.421 46.9188 183.381 46.6674 183.392 46.4156C183.404 46.1639 183.465 45.9168 183.572 45.6887L193.023 25.3716C193.176 25.0449 193.418 24.7669 193.721 24.5682C194.023 24.3694 194.375 24.2576 194.737 24.2451H194.77C195.131 24.2484 195.484 24.349 195.792 24.5362C196.099 24.7233 196.35 24.9901 196.518 25.3079L206.713 45.625C206.83 45.8505 206.9 46.097 206.919 46.35C206.939 46.6031 206.907 46.8573 206.825 47.0977C206.743 47.3381 206.614 47.5597 206.444 47.7493C206.275 47.9389 206.069 48.0926 205.838 48.2012M198.782 38.4777L194.834 30.6219L191.177 38.4777H198.782Z" fill="#83DCD1"/>
<path d="M234.176 36.7013C234.208 38.2556 233.919 39.8 233.326 41.2384C232.733 42.6767 231.849 43.9784 230.729 45.0624C229.609 46.1465 228.277 46.9897 226.815 47.5398C225.353 48.0898 223.794 48.3349 222.233 48.2598C220.634 48.2572 219.051 47.9367 217.578 47.317C216.105 46.6972 214.771 45.7909 213.655 44.6511C212.539 43.5113 211.663 42.1611 211.079 40.6799C210.495 39.1986 210.215 37.6161 210.254 36.0254C210.26 33.6411 210.966 31.3103 212.285 29.3197C213.604 27.3292 215.48 25.7657 217.68 24.8214C219.881 23.8771 222.311 23.5933 224.672 24.0049C227.033 24.4164 229.221 25.5054 230.968 27.1378C231.344 27.4989 231.561 27.9928 231.573 28.5124C231.585 29.032 231.39 29.5354 231.032 29.9132C230.857 30.0994 230.648 30.2496 230.415 30.3552C230.183 30.4608 229.931 30.5198 229.676 30.5287C229.42 30.5377 229.165 30.4964 228.926 30.4073C228.686 30.3182 228.467 30.183 228.28 30.0095C226.74 28.5381 224.686 27.7187 222.551 27.7239C221.455 27.7237 220.369 27.9384 219.355 28.3559C218.342 28.7733 217.421 29.3853 216.646 30.1568C215.87 30.9283 215.255 31.8443 214.836 32.8524C214.416 33.8604 214.2 34.9409 214.201 36.032C214.167 37.1064 214.349 38.1768 214.736 39.1804C215.123 40.1841 215.707 41.101 216.454 41.8774C217.201 42.6538 218.097 43.2743 219.088 43.7025C220.079 44.1306 221.146 44.3579 222.226 44.3711C224.08 44.4794 225.909 43.906 227.365 42.76C228.821 41.614 229.803 39.9754 230.124 38.1559H225.884C225.365 38.1559 224.867 37.9507 224.5 37.5855C224.133 37.2202 223.926 36.7248 223.926 36.2083C223.926 35.6917 224.133 35.1964 224.5 34.8311C224.867 34.4659 225.365 34.2607 225.884 34.2607H232.166C232.422 34.2587 232.677 34.3072 232.915 34.4033C233.153 34.4995 233.37 34.6414 233.553 34.8209C233.736 35.0004 233.881 35.2141 233.981 35.4496C234.081 35.6852 234.133 35.938 234.135 36.1936V36.3569C234.163 36.4727 234.174 36.5921 234.168 36.7111" fill="white"/>
<path d="M255.601 48.0688C255.324 48.2216 255.012 48.2993 254.695 48.2941C254.345 48.299 254.001 48.2047 253.703 48.0223C253.405 47.8399 253.165 47.5769 253.012 47.264L248.253 38.2849H244.151V46.3661C244.136 46.8602 243.928 47.3292 243.572 47.6736C243.215 48.018 242.738 48.2107 242.241 48.2107C241.744 48.2107 241.267 48.018 240.911 47.6736C240.554 47.3292 240.347 46.8602 240.332 46.3661V25.9591C240.338 25.4748 240.527 25.0105 240.862 24.6585C241.196 24.3065 241.651 24.0924 242.137 24.0588V23.8662H249.521C251.44 23.936 253.256 24.7496 254.58 26.1333C255.905 27.517 256.633 29.361 256.609 31.2715C256.58 32.6402 256.151 33.971 255.376 35.1016C254.6 36.2322 253.51 37.1136 252.239 37.6384L256.415 45.4959C256.65 45.9444 256.697 46.4674 256.545 46.9503C256.394 47.4331 256.056 47.8365 255.606 48.0721M244.144 34.4794H249.257C250.147 34.4918 251.008 34.1653 251.664 33.5668C252.32 32.9683 252.721 32.1431 252.785 31.26C252.798 30.363 252.467 29.4947 251.86 28.8311C251.253 28.1676 250.415 27.7584 249.516 27.6864H244.144V34.4794Z" fill="white"/>
<path d="M275.732 48.2616C273.302 48.2648 270.925 47.5505 268.903 46.209C266.88 44.8675 265.303 42.9592 264.372 40.7257C263.44 38.4922 263.195 36.0339 263.669 33.662C264.142 31.2901 265.312 29.1113 267.031 27.4013C268.75 25.6914 270.94 24.5273 273.324 24.0563C275.708 23.5853 278.179 23.8287 280.424 24.7556C282.669 25.6825 284.587 27.2512 285.935 29.2632C287.284 31.2752 288.002 33.64 287.998 36.0583C287.992 39.2927 286.697 42.3926 284.398 44.6797C282.099 46.9668 278.984 48.2547 275.732 48.2616ZM275.732 27.7192C274.076 27.7156 272.455 28.2014 271.076 29.115C269.697 30.0286 268.622 31.3288 267.986 32.851C267.35 34.3732 267.183 36.0489 267.506 37.6657C267.828 39.2825 268.626 40.7677 269.797 41.9331C270.969 43.0986 272.462 43.8918 274.087 44.2123C275.712 44.5328 277.397 44.3662 278.926 43.7335C280.456 43.1009 281.763 42.0306 282.681 40.6585C283.599 39.2863 284.087 37.6739 284.083 36.0256C284.078 33.8239 283.196 31.7139 281.631 30.1572C280.066 28.6005 277.945 27.7239 275.732 27.7192Z" fill="white"/>
</g>
</svg>
